{"url":"https://api.github.com/repos/k4yt3x/video2x/issues/21","repository_url":"https://api.github.com/repos/k4yt3x/video2x","labels_url":"https://api.github.com/repos/k4yt3x/video2x/issues/21/labels{/name}","comments_url":"https://api.github.com/repos/k4yt3x/video2x/issues/21/comments","events_url":"https://api.github.com/repos/k4yt3x/video2x/issues/21/events","html_url":"https://github.com/k4yt3x/video2x/issues/21","id":376564179,"node_id":"MDU6SXNzdWUzNzY1NjQxNzk=","number":21,"title":"Images Unprocessed When Using CUDNN","user":{"login":"wuast94","id":16965460,"node_id":"MDQ6VXNlcjE2OTY1NDYw","avatar_url":"https://avatars.githubusercontent.com/u/16965460?v=4","gravatar_id":"","url":"https://api.github.com/users/wuast94","html_url":"https://github.com/wuast94","followers_url":"https://api.github.com/users/wuast94/followers","following_url":"https://api.github.com/users/wuast94/following{/other_user}","gists_url":"https://api.github.com/users/wuast94/gists{/gist_id}","starred_url":"https://api.github.com/users/wuast94/starred{/owner}{/repo}","subscriptions_url":"https://api.github.com/users/wuast94/subscriptions","organizations_url":"https://api.github.com/users/wuast94/orgs","repos_url":"https://api.github.com/users/wuast94/repos","events_url":"https://api.github.com/users/wuast94/events{/privacy}","received_events_url":"https://api.github.com/users/wuast94/received_events","type":"User","site_admin":false},"labels":[{"id":1025498623,"node_id":"MDU6TGFiZWwxMDI1NDk4NjIz","url":"https://api.github.com/repos/k4yt3x/video2x/labels/state:timedOut","name":"state:timedOut","color":"ff8235","default":false,"description":"The issue owner isn't responding to questions"}],"state":"closed","locked":false,"assignee":{"login":"k4yt3x","id":21986859,"node_id":"MDQ6VXNlcjIxOTg2ODU5","avatar_url":"https://avatars.githubusercontent.com/u/21986859?v=4","gravatar_id":"","url":"https://api.github.com/users/k4yt3x","html_url":"https://github.com/k4yt3x","followers_url":"https://api.github.com/users/k4yt3x/followers","following_url":"https://api.github.com/users/k4yt3x/following{/other_user}","gists_url":"https://api.github.com/users/k4yt3x/gists{/gist_id}","starred_url":"https://api.github.com/users/k4yt3x/starred{/owner}{/repo}","subscriptions_url":"https://api.github.com/users/k4yt3x/subscriptions","organizations_url":"https://api.github.com/users/k4yt3x/orgs","repos_url":"https://api.github.com/users/k4yt3x/repos","events_url":"https://api.github.com/users/k4yt3x/events{/privacy}","received_events_url":"https://api.github.com/users/k4yt3x/received_events","type":"User","site_admin":false},"assignees":[{"login":"k4yt3x","id":21986859,"node_id":"MDQ6VXNlcjIxOTg2ODU5","avatar_url":"https://avatars.githubusercontent.com/u/21986859?v=4","gravatar_id":"","url":"https://api.github.com/users/k4yt3x","html_url":"https://github.com/k4yt3x","followers_url":"https://api.github.com/users/k4yt3x/followers","following_url":"https://api.github.com/users/k4yt3x/following{/other_user}","gists_url":"https://api.github.com/users/k4yt3x/gists{/gist_id}","starred_url":"https://api.github.com/users/k4yt3x/starred{/owner}{/repo}","subscriptions_url":"https://api.github.com/users/k4yt3x/subscriptions","organizations_url":"https://api.github.com/users/k4yt3x/orgs","repos_url":"https://api.github.com/users/k4yt3x/repos","events_url":"https://api.github.com/users/k4yt3x/events{/privacy}","received_events_url":"https://api.github.com/users/k4yt3x/received_events","type":"User","site_admin":false}],"milestone":null,"comments":5,"created_at":"2018-11-01T20:47:09Z","updated_at":"2018-11-26T19:19:08Z","closed_at":"2018-11-26T19:19:08Z","author_association":"NONE","active_lock_reason":null,"body":"So im back and now having this error:\r\n\r\n```\r\n\"C:\\Users\\Marcd\\Desktop\\videoenlarger\\ffmpeg-4.0.2\\bin/ffmpeg.exe\" -i \"D:\\S01E01o.avi\" C:\\Users\\Marcd\\Desktop\\videoenlarger\\video2x-master\\frames\\extracted_%0d.png -y\r\nffmpeg version N-92202-gf72b9904fe Copyright (c) 2000-2018 the FFmpeg developers\r\n  built with gcc 8.2.1 (GCC) 20181017\r\n  configuration: --enable-gpl --enable-version3 --enable-sdl2 --enable-fontconfig --enable-gnutls --enable-iconv --enable-libass --enable-libbluray --enable-libfreetype --enable-libmp3lame --enable-libopencore-amrnb --enable-libopencore-amrwb --enable-libopenjpeg --enable-libopus --enable-libshine --enable-libsnappy --enable-libsoxr --enable-libtheora --enable-libtwolame --enable-libvpx --enable-libwavpack --enable-libwebp --enable-libx264 --enable-libx265 --enable-libxml2 --enable-libzimg --enable-lzma --enable-zlib --enable-gmp --enable-libvidstab --enable-libvorbis --enable-libvo-amrwbenc --enable-libmysofa --enable-libspeex --enable-libxvid --enable-libaom --enable-libmfx --enable-amf --enable-ffnvcodec --enable-cuvid --enable-d3d11va --enable-nvenc --enable-nvdec --enable-dxva2 --enable-avisynth\r\n  libavutil      56. 19.101 / 56. 19.101\r\n  libavcodec     58. 33.101 / 58. 33.101\r\n  libavformat    58. 19.100 / 58. 19.100\r\n  libavdevice    58.  4.105 / 58.  4.105\r\n  libavfilter     7. 33.101 /  7. 33.101\r\n  libswscale      5.  2.100 /  5.  2.100\r\n  libswresample   3.  2.100 /  3.  2.100\r\n  libpostproc    55.  2.100 / 55.  2.100\r\nInput #0, avi, from 'D:\\S01E01o.avi':\r\n  Metadata:\r\n    encoder         : VirtualDubMod 1.5.10.2 (build 2540/release)\r\n  Duration: 00:20:50.46, start: 0.000000, bitrate: 1172 kb/s\r\n    Stream #0:0: Video: mpeg4 (Advanced Simple Profile) (XVID / 0x44495658), yuv420p, 640x480 [SAR 1:1 DAR 4:3], 1035 kb/s, 23.98 fps, 23.98 tbr, 23.98 tbn, 23.98 tbc\r\n    Stream #0:1: Audio: mp3 (U[0][0][0] / 0x0055), 48000 Hz, stereo, fltp, 128 kb/s\r\nStream mapping:\r\n  Stream #0:0 -> #0:0 (mpeg4 (native) -> png (native))\r\nPress [q] to stop, [?] for help\r\n[mpeg4 @ 0000000004724800] Video uses a non-standard and wasteful way to store B-frames ('packed B-frames'). Consider using the mpeg4_unpack_bframes bitstream filter without encoding but stream copy to fix it.\r\nOutput #0, image2, to 'C:\\Users\\Marcd\\Desktop\\videoenlarger\\video2x-master\\frames\\extracted_%0d.png':\r\n  Metadata:\r\n    encoder         : Lavf58.19.100\r\n    Stream #0:0: Video: png, rgb24, 640x480 [SAR 1:1 DAR 4:3], q=2-31, 200 kb/s, 23.98 fps, 23.98 tbn, 23.98 tbc\r\n    Metadata:\r\n      encoder         : Lavc58.33.101 png\r\nframe=29982 fps=217 q=-0.0 Lsize=N/A time=00:20:50.50 bitrate=N/A dup=1 drop=0 speed=9.07x\r\nvideo:10005055kB audio:0kB subtitle:0kB other streams:0kB global headers:0kB muxing overhead: unknown\r\n[+] INFO: Reading video information\r\n[+] INFO: Framerate: 23.976\r\n[+] INFO: Starting to upscale extracted images\r\n2018-11-01 21:43:49.597001 [+] INFO: [upscaler] Thread 0 started\r\n2018-11-01 21:43:49.598004 [+] INFO: [upscaler] Thread 1 started\r\n2018-11-01 21:43:49.598004 [+] INFO: [upscaler] Thread 2 started\r\n2018-11-01 21:43:49.599007 [+] INFO: [upscaler] Thread 3 started\r\n2018-11-01 21:43:49.599007 [+] INFO: [upscaler] Thread 4 started\r\n2018-11-01 21:43:49.600010 [+] INFO: [upscaler] Thread 5 started\r\n2018-11-01 21:43:49.600010 [+] INFO: [upscaler] Thread 6 started\r\n2018-11-01 21:43:49.601012 [+] INFO: [upscaler] Thread 7 started\r\n2018-11-01 21:43:49.601012 [+] INFO: [upscaler] Thread 8 started\r\n2018-11-01 21:43:49.601012 [+] INFO: [upscaler] Thread 9 started\r\n2018-11-01 21:43:49.604020 [+] INFO: [upscaler] Thread 10 started\r\n2018-11-01 21:43:49.605023 [+] INFO: [upscaler] Thread 11 started\r\n2018-11-01 21:43:50.194590 [+] INFO: [upscaler] Thread 4 exiting\r\n2018-11-01 21:43:50.364041 [+] INFO: [upscaler] Thread 0 exiting\r\n2018-11-01 21:43:50.381086 [+] INFO: [upscaler] Thread 9 exiting\r\n2018-11-01 21:43:50.383091 [+] INFO: [upscaler] Thread 1 exiting\r\n2018-11-01 21:43:50.388105 [+] INFO: [upscaler] Thread 10 exiting\r\n2018-11-01 21:43:50.390110 [+] INFO: [upscaler] Thread 11 exiting\r\n2018-11-01 21:43:50.394121 [+] INFO: [upscaler] Thread 5 exiting\r\n2018-11-01 21:43:50.395124 [+] INFO: [upscaler] Thread 6 exiting\r\n2018-11-01 21:43:50.395124 [+] INFO: [upscaler] Thread 7 exiting\r\n2018-11-01 21:43:50.396126 [+] INFO: [upscaler] Thread 3 exiting\r\n2018-11-01 21:43:50.398131 [+] INFO: [upscaler] Thread 8 exiting\r\n2018-11-01 21:43:50.399134 [+] INFO: [upscaler] Thread 2 exiting\r\n[+] INFO: Upscaling completed\r\n[+] INFO: Converting extracted frames into video\r\n\"C:\\Users\\Marcd\\Desktop\\videoenlarger\\ffmpeg-4.0.2\\bin/ffmpeg.exe\" -r 23.976 -f image2 -s 640x480 -i C:\\Users\\Marcd\\Desktop\\videoenlarger\\video2x-master\\upscaled\\extracted_%d.png -vcodec libx264 -crf 25 -pix_fmt yuv420p C:\\Users\\Marcd\\Desktop\\videoenlarger\\video2x-master\\upscaled\\no_audio.mp4 -y\r\nffmpeg version N-92202-gf72b9904fe Copyright (c) 2000-2018 the FFmpeg developers\r\n  built with gcc 8.2.1 (GCC) 20181017\r\n  configuration: --enable-gpl --enable-version3 --enable-sdl2 --enable-fontconfig --enable-gnutls --enable-iconv --enable-libass --enable-libbluray --enable-libfreetype --enable-libmp3lame --enable-libopencore-amrnb --enable-libopencore-amrwb --enable-libopenjpeg --enable-libopus --enable-libshine --enable-libsnappy --enable-libsoxr --enable-libtheora --enable-libtwolame --enable-libvpx --enable-libwavpack --enable-libwebp --enable-libx264 --enable-libx265 --enable-libxml2 --enable-libzimg --enable-lzma --enable-zlib --enable-gmp --enable-libvidstab --enable-libvorbis --enable-libvo-amrwbenc --enable-libmysofa --enable-libspeex --enable-libxvid --enable-libaom --enable-libmfx --enable-amf --enable-ffnvcodec --enable-cuvid --enable-d3d11va --enable-nvenc --enable-nvdec --enable-dxva2 --enable-avisynth\r\n  libavutil      56. 19.101 / 56. 19.101\r\n  libavcodec     58. 33.101 / 58. 33.101\r\n  libavformat    58. 19.100 / 58. 19.100\r\n  libavdevice    58.  4.105 / 58.  4.105\r\n  libavfilter     7. 33.101 /  7. 33.101\r\n  libswscale      5.  2.100 /  5.  2.100\r\n  libswresample   3.  2.100 /  3.  2.100\r\n  libpostproc    55.  2.100 / 55.  2.100\r\n[image2 @ 000000000465afc0] Could find no file with path 'C:\\Users\\Marcd\\Desktop\\videoenlarger\\video2x-master\\upscaled\\extracted_%d.png' and index in the range 0-4\r\nC:\\Users\\Marcd\\Desktop\\videoenlarger\\video2x-master\\upscaled\\extracted_%d.png: No such file or directory\r\n[+] INFO: Conversion completed\r\n[+] INFO: Stripping audio track from original video\r\n\"C:\\Users\\Marcd\\Desktop\\videoenlarger\\ffmpeg-4.0.2\\bin/ffmpeg.exe\" -i \"D:\\S01E01o.avi\" -vn -acodec copy C:\\Users\\Marcd\\Desktop\\videoenlarger\\video2x-master\\upscaled\\output-audio.aac -y\r\nffmpeg version N-92202-gf72b9904fe Copyright (c) 2000-2018 the FFmpeg developers\r\n  built with gcc 8.2.1 (GCC) 20181017\r\n  configuration: --enable-gpl --enable-version3 --enable-sdl2 --enable-fontconfig --enable-gnutls --enable-iconv --enable-libass --enable-libbluray --enable-libfreetype --enable-libmp3lame --enable-libopencore-amrnb --enable-libopencore-amrwb --enable-libopenjpeg --enable-libopus --enable-libshine --enable-libsnappy --enable-libsoxr --enable-libtheora --enable-libtwolame --enable-libvpx --enable-libwavpack --enable-libwebp --enable-libx264 --enable-libx265 --enable-libxml2 --enable-libzimg --enable-lzma --enable-zlib --enable-gmp --enable-libvidstab --enable-libvorbis --enable-libvo-amrwbenc --enable-libmysofa --enable-libspeex --enable-libxvid --enable-libaom --enable-libmfx --enable-amf --enable-ffnvcodec --enable-cuvid --enable-d3d11va --enable-nvenc --enable-nvdec --enable-dxva2 --enable-avisynth\r\n  libavutil      56. 19.101 / 56. 19.101\r\n  libavcodec     58. 33.101 / 58. 33.101\r\n  libavformat    58. 19.100 / 58. 19.100\r\n  libavdevice    58.  4.105 / 58.  4.105\r\n  libavfilter     7. 33.101 /  7. 33.101\r\n  libswscale      5.  2.100 /  5.  2.100\r\n  libswresample   3.  2.100 /  3.  2.100\r\n  libpostproc    55.  2.100 / 55.  2.100\r\nInput #0, avi, from 'D:\\S01E01o.avi':\r\n  Metadata:\r\n    encoder         : VirtualDubMod 1.5.10.2 (build 2540/release)\r\n  Duration: 00:20:50.46, start: 0.000000, bitrate: 1172 kb/s\r\n    Stream #0:0: Video: mpeg4 (Advanced Simple Profile) (XVID / 0x44495658), yuv420p, 640x480 [SAR 1:1 DAR 4:3], 1035 kb/s, 23.98 fps, 23.98 tbr, 23.98 tbn, 23.98 tbc\r\n    Stream #0:1: Audio: mp3 (U[0][0][0] / 0x0055), 48000 Hz, stereo, fltp, 128 kb/s\r\n[adts @ 0000000004748000] Only AAC streams can be muxed by the ADTS muxer\r\nCould not write header for output file #0 (incorrect codec parameters ?): Invalid argument\r\nStream mapping:\r\n  Stream #0:1 -> #0:0 (copy)\r\n    Last message repeated 1 times\r\n[+] INFO: Inserting audio track into new video\r\n\"C:\\Users\\Marcd\\Desktop\\videoenlarger\\ffmpeg-4.0.2\\bin/ffmpeg.exe\" -i C:\\Users\\Marcd\\Desktop\\videoenlarger\\video2x-master\\upscaled\\no_audio.mp4 -i C:\\Users\\Marcd\\Desktop\\videoenlarger\\video2x-master\\upscaled\\output-audio.aac -shortest -codec copy D:\\S01E01n.avi -y\r\nffmpeg version N-92202-gf72b9904fe Copyright (c) 2000-2018 the FFmpeg developers\r\n  built with gcc 8.2.1 (GCC) 20181017\r\n  configuration: --enable-gpl --enable-version3 --enable-sdl2 --enable-fontconfig --enable-gnutls --enable-iconv --enable-libass --enable-libbluray --enable-libfreetype --enable-libmp3lame --enable-libopencore-amrnb --enable-libopencore-amrwb --enable-libopenjpeg --enable-libopus --enable-libshine --enable-libsnappy --enable-libsoxr --enable-libtheora --enable-libtwolame --enable-libvpx --enable-libwavpack --enable-libwebp --enable-libx264 --enable-libx265 --enable-libxml2 --enable-libzimg --enable-lzma --enable-zlib --enable-gmp --enable-libvidstab --enable-libvorbis --enable-libvo-amrwbenc --enable-libmysofa --enable-libspeex --enable-libxvid --enable-libaom --enable-libmfx --enable-amf --enable-ffnvcodec --enable-cuvid --enable-d3d11va --enable-nvenc --enable-nvdec --enable-dxva2 --enable-avisynth\r\n  libavutil      56. 19.101 / 56. 19.101\r\n  libavcodec     58. 33.101 / 58. 33.101\r\n  libavformat    58. 19.100 / 58. 19.100\r\n  libavdevice    58.  4.105 / 58.  4.105\r\n  libavfilter     7. 33.101 /  7. 33.101\r\n  libswscale      5.  2.100 /  5.  2.100\r\n  libswresample   3.  2.100 /  3.  2.100\r\n  libpostproc    55.  2.100 / 55.  2.100\r\nC:\\Users\\Marcd\\Desktop\\videoenlarger\\video2x-master\\upscaled\\no_audio.mp4: No such file or directory\r\n[+] INFO: Program completed, taking 154.6568 seconds\r\n```","closed_by":{"login":"k4yt3x","id":21986859,"node_id":"MDQ6VXNlcjIxOTg2ODU5","avatar_url":"https://avatars.githubusercontent.com/u/21986859?v=4","gravatar_id":"","url":"https://api.github.com/users/k4yt3x","html_url":"https://github.com/k4yt3x","followers_url":"https://api.github.com/users/k4yt3x/followers","following_url":"https://api.github.com/users/k4yt3x/following{/other_user}","gists_url":"https://api.github.com/users/k4yt3x/gists{/gist_id}","starred_url":"https://api.github.com/users/k4yt3x/starred{/owner}{/repo}","subscriptions_url":"https://api.github.com/users/k4yt3x/subscriptions","organizations_url":"https://api.github.com/users/k4yt3x/orgs","repos_url":"https://api.github.com/users/k4yt3x/repos","events_url":"https://api.github.com/users/k4yt3x/events{/privacy}","received_events_url":"https://api.github.com/users/k4yt3x/received_events","type":"User","site_admin":false},"reactions":{"url":"https://api.github.com/repos/k4yt3x/video2x/issues/21/reactions","total_count":0,"+1":0,"-1":0,"laugh":0,"hooray":0,"confused":0,"heart":0,"rocket":0,"eyes":0},"timeline_url":"https://api.github.com/repos/k4yt3x/video2x/issues/21/timeline","performed_via_github_app":null,"state_reason":"completed"}